# xmcd
#
# Track frame offsets: 
#        150
#        10377
#        19925
#        30995
#        40192
#        49812
#        61450
#        71552
#        83340
#        94517
#
# Disc length: 1424 seconds
#
# Revision: 2
# Processed by: cddbd v1.5.2PL0 Copyright (c) Steve Scherf et al.
# Submitted via: ExactAudioCopy v1.0b3
#
DISCID=71058e0a
DTITLE=George Jones - All Time Greatest Hits
DYEAR=1994
DGENRE=Country
TTITLE0=Love's Gonna Live Here
TTITLE1=The Race Is On
TTITLE2=Not What I Had In Mind
TTITLE3=Wings Of A Dove
TTITLE4=Rollin' In My Sweet Baby's Arms
TTITLE5=She Thinks I Still Care
TTITLE6=Your Heart Turned Left (And I Was On The Right)
TTITLE7=Where Does A Little Tear Come From
TTITLE8=Running Bear
TTITLE9=Sometimes You Just Can't Win
EXTD=
EXTT0=
EXTT1=
EXTT2=
EXTT3=
EXTT4=
EXTT5=
EXTT6=
EXTT7=
EXTT8=
EXTT9=
PLAYORDER=
